# xmcd
#
# Track frame offsets: 
#        150
#        16026
#        34107
#        53152
#        68696
#        84181
#        100564
#        120191
#        140259
#        158547
#        174092
#
# Disc length: 2529 seconds
#
# Revision: 0
# Processed by: cddbd v1.4PL0 Copyright (c) Steve Scherf et al.
# Submitted via: ExactAudioCopy v0.90b4
#
DISCID=6909df0b
DTITLE=Doc Walker - Curve
DYEAR=2001
DGENRE=Country
TTITLE0=Whoever Made Those Rules
TTITLE1=Dreaming Out Loud
TTITLE2=Rocket Girl
TTITLE3=She Hasn't Always Been This Way
TTITLE4=Boston
TTITLE5=Lonesome On'ry and Mean
TTITLE6=Call Me A Fool
TTITLE7=I'm Just Waiting
TTITLE8=Son Of Daniel
TTITLE9=You Can't Do That To Me
TTITLE10=That's Just Me
EXTD=
EXTT0=
EXTT1=
EXTT2=
EXTT3=
EXTT4=
EXTT5=
EXTT6=
EXTT7=
EXTT8=
EXTT9=
EXTT10=
PLAYORDER=
